<?xml version="1.0" encoding="utf-8"?>
<!-- Generator: Adobe Illustrator 24.1.0, SVG Export Plug-In . SVG Version: 6.00 Build 0)  -->
<svg version="1.1" id="Ebene_1" xmlns="http://www.w3.org/2000/svg" xmlns:xlink="http://www.w3.org/1999/xlink" x="0px" y="0px"
	 viewBox="0 0 1366 768" style="enable-background:new 0 0 1366 768;" xml:space="preserve">
<style type="text/css">
	.st0{clip-path:url(#SVGID_2_);fill:#4D4D4D;}
	.st1{clip-path:url(#SVGID_2_);fill:#F2F2F2;}
	.st2{clip-path:url(#SVGID_2_);}
	.st3{fill:none;stroke:#000000;stroke-miterlimit:10;}
	.st4{fill:#1A1A1A;}
	.st5{fill:#93C4C6;stroke:#000000;stroke-miterlimit:10;}
	.st6{clip-path:url(#SVGID_2_);fill:#333333;}
	.st7{clip-path:url(#SVGID_2_);fill:#313131;}
	.st8{clip-path:url(#SVGID_2_);fill:#E6E6E6;}
	.st9{clip-path:url(#SVGID_2_);fill:#1A1A1A;stroke:#170C00;stroke-miterlimit:10;}
	.st10{clip-path:url(#SVGID_2_);fill:#DB9CAB;}
	.st11{clip-path:url(#SVGID_2_);fill:#3D3D3D;}
	.st12{clip-path:url(#SVGID_2_);fill:#1A1A1A;}
</style>
<g>
	<defs>
		<ellipse id="SVGID_1_" cx="720.5" cy="377.5" rx="181.5" ry="178.5"/>
	</defs>
	<use xlink:href="#SVGID_1_"  style="overflow:visible;fill:#93C4C6;"/>
	<clipPath id="SVGID_2_">
		<use xlink:href="#SVGID_1_"  style="overflow:visible;"/>
	</clipPath>
	<path id="Arm_x5F_rechts" class="st0" d="M690.57,409.17c0.03,0.01,0.07,0.02,0.1,0.03c7.38,1.94,14.69-2.62,21.33-6.37
		c11.51-6.5,24.1-11.07,37.09-13.49c5.12-0.95,10.71-1.5,15.29,0.98c6.42,3.48,9.68,12.29,16.91,13.35
		c6.57-3.87,10.98-11.19,11.33-18.81c0.35-7.62-3.36-15.31-9.55-19.78c-7.17-5.17-16.54-5.8-25.37-6.25
		c-9.34-0.47-19-0.9-27.75,2.42c-11.18,4.25-20.27,14.4-32.22,15.04c-0.74-1.17-1.23-2.2-2.33-3c-3.97,4.33-5.8,11.37-6.55,17.12
		C688.55,392.76,687.66,408.04,690.57,409.17z"/>
	<path id="Körper" class="st1" d="M642.35,258.85c-8.37,2.54-17.75,3.41-26.2,5.97c-23.64,7.15-41.56,27.93-56.26,44.13
		c-17.05,18.78-26.22,42.89-25.31,67.49c0.71,19.34,7.33,38.47,12.92,57.53c7.81,26.6,13.7,53.5,17.63,80.48
		c0.93,6.37,1.76,12.79,3.89,19.02c2.66,7.79,7.3,15.1,12.38,22.1c10.83,14.93,23.88,28.78,38.69,41.09
		c8.1-1.31,16.21-2.63,24.31-3.94c2.43-0.39,4.92-0.81,6.99-1.89c2.84-1.49,4.56-4.08,6.18-6.57c6.97-10.73,13.98-21.54,18.39-33.33
		c3.19-8.55,4.98-17.51,8.03-26.11c4.31-12.15,11.14-23.53,14.13-36.04c3.39-14.21,1.66-29.19,1.63-43.89
		c-0.05-24.1,4.54-47.93,13.53-70.24c-19.25-1.5-38.13-10.61-50.05-24.15s-16.64-31.25-12.52-46.94c1.64-6.25,4.6-12.14,5.96-18.46
		c2.14-9.89,0.19-20.62-5.44-29.95C648.47,256.72,645.48,257.91,642.35,258.85z"/>
	<g class="st2">
		<path id="Schlaufe" class="st3" d="M816.73,396.26c1.17-1.6,2.55-3.1,3.92-4.46c0.93-0.93,1.97-1.83,3.29-2.27
			c1.32-0.44,2.99-0.29,3.91,0.67c1.22,1.86,0.52,4.34-1.11,5.93c-1.62,1.59-3.97,2.45-6.29,3.08c-2.07,0.56-4.21,1.13-6.27,1.61
			C814.76,399.25,815.66,397.71,816.73,396.26z"/>
		<path id="Schlaufe_1_" class="st3" d="M716.69,438.17c-1.25,1.55-2.7,3-4.13,4.3c-0.98,0.89-2.06,1.76-3.4,2.14
			c-1.34,0.39-3,0.17-3.87-0.81c-1.13-1.91-0.3-4.36,1.4-5.88c1.7-1.53,4.08-2.3,6.44-2.84c2.1-0.48,4.26-0.97,6.34-1.37
			C718.81,435.26,717.83,436.76,716.69,438.17z"/>
		<path id="Maske" class="st4" d="M757.69,406.83c-3.77,1.1-7.68,1.84-11.56,2.62c-7.64,1.54-15.43,3.33-21.82,7.3
			c-13.68,8.49-12.92,25.51,1.49,33.61c8.09,4.55,19.01,2.79,27.11-1.62c8.1-4.41,14.24-11.05,21.07-16.88
			c10.24,0.65,20.79,1.28,30.52-1.51c9.74-2.79,18.59-9.85,19.51-18.83c0.63-6.15-2.67-12.44-8.13-16.37
			c-5.46-3.93-12.87-5.52-19.83-4.67c-13.23,1.62-23.26,11.1-35.63,15.48C759.53,406.27,758.61,406.56,757.69,406.83z"/>
		<path id="Auge_x5F_links" class="st5" d="M778.52,416.14c0.25,0.67,0.93,1.25,2.19,1.67c4.15,1.36,8.9,1.23,12.92-0.37
			s7.26-4.62,8.82-8.25c0.14-0.31,0.26-0.67,0.12-0.98c-0.14-0.32-0.51-0.5-0.86-0.65c-4.25-1.82-9.34-2.01-13.72-0.53
			C785.36,407.93,777.39,413.05,778.52,416.14z"/>
		<path id="Auge_x5F_rechts_1_" class="st5" d="M757.89,423.76c0-0.01-0.01-0.02-0.01-0.02c-4.46-2.22-10.04-2.6-14.8-1
			c-2.94,0.99-10.11,5.05-9.85,8.46c0.26,3.41,7.96,3.94,11.35,3.68c1.66-0.13,3.31-0.45,4.79-1.1c2.02-0.89,3.65-2.33,5.23-3.74
			C756.53,428.32,758.62,426.1,757.89,423.76z"/>
	</g>
	<path id="Arm_x5F_links" class="st6" d="M565.56,332.25c-1.24-0.47-2.5-0.9-3.79-1.22c-24.58-6.16-24.44,40.24-17.34,53.55
		c1.47,2.76,3.31,5.33,4.49,8.23c1.02,2.52,1.52,5.23,2,7.91c5.01,27.57,10.42,55.51,23.08,80.5c3.04,6,6.55,11.88,11.47,16.47
		c4.92,4.59,11.43,7.79,18.15,7.54c6.45-0.23,12.33-3.5,18.11-6.37c26.41-13.14,56.2-19.4,85.67-18.01
		c4.27,0.2,8.59,0.56,12.78-0.32s8.3-3.21,10.18-7.04c1.4-2.86,1.42-6.19,1.22-9.37c-0.7-11.53-4.67-24.13-14.8-29.68
		c-11.72-6.42-26-0.89-39.21,1.11c-5.07,0.77-10.49,0.93-15.06-1.39c-9.61-4.86-11.21-17.95-9.63-28.61s4.97-21.89,0.84-31.84
		c-2.62-6.31-7.92-11.05-13.04-15.57c-13.03-11.47-27.88-23.63-45.23-23.05c-6.23,0.21-12.46,2.1-18.61,1.06
		C572.89,335.48,569.29,333.66,565.56,332.25z"/>
	<path id="Oberarm" class="st7" d="M603.69,339.35c-2.02-0.53-4.08-0.87-6.19-0.97c-10.27-0.48-20.86,4.87-30.52,1.33
		c-2.93-1.07-5.57-2.92-8.61-3.61c-14.49-3.27-16.08,25.41-15.18,33.92c1.13,10.72,4.63,21.02,7.18,31.49
		c2.67,11.01,4.31,22.31,8.07,33c3.89,11.06,10.08,21.61,10.8,33.32c19.39-13.45,37.81-28.29,55.08-44.36
		c9.72-9.05,19.15-18.57,26.39-29.7c3.73-5.73,6.89-13.07,3.81-19.17c-1.41-2.79-3.93-4.83-6.39-6.77
		c-8.73-6.9-17.6-13.65-26.89-19.77C615.77,344.45,609.94,340.99,603.69,339.35z"/>
	<path id="Kopf" class="st8" d="M647.95,276.55c-0.06,0.68-0.12,1.37-0.18,2.07c-0.9,10.02-5.45,19.35-7.32,29.24
		c-2.08,11.01-0.67,22.79,4.71,32.63c9.88,18.05,30.64,26.7,49.87,34.05c1.57,0.6,3.18,1.21,4.86,1.21c2.19,0,4.25-1.02,6.42-1.24
		c4.23-0.42,8.15,2.23,12.36,2.85c6.05,0.9,12.08-2.58,15.86-7.39c3.77-4.81,5.69-10.78,7.41-16.65c1.14-3.9,2.88-8.47,6.85-9.34
		c1.31-0.29,2.73-0.11,3.95-0.67c1.42-0.65,2.24-2.12,2.97-3.51c4.26-8.13,8.64-16.74,8.24-25.91c-0.55-12.57-9.85-23.01-12.95-35.2
		c-1.76-6.93-1.74-14.89-6.68-20.06c-1.97-2.06-4.54-3.43-7.06-4.76c-9.49-5.02-19.19-10.11-29.79-11.83
		c-7.07-1.15-14.29-0.75-21.44-0.34c-6.7,0.38-13.48,0.77-19.86,2.86C649.74,249.96,649.18,262.06,647.95,276.55z"/>
	<path id="helle_Kopfhälfte" class="st1" d="M710.93,258.76c1.35,6.73,9.03,14.07,11.83,18.89c12.58,21.6-2.23,51.94,11.26,72.99
		c2.07,3.23,4.88,6.71,3.91,10.43c-0.41,1.56-1.44,2.87-2.53,4.05c-5.62,6.12-13.34,10.28-21.54,11.6
		c6.73,3.69,15.58,2.42,21.59-2.36c6.01-4.77,9.23-12.57,9.27-20.25c0.02-2.45-0.17-5.18,1.44-7.02c1.29-1.48,3.36-1.92,5.19-2.62
		c5.65-2.16,9.73-7.42,11.66-13.16c1.93-5.74,1.97-11.95,1.46-17.99c-1.46-17.27-7.32-34.15-16.85-48.61
		c-4.12-6.24-9.19-12.26-16.07-15.18c-5.76-2.45-18.27-2.61-20.52,5.02C710.64,255.9,710.64,257.31,710.93,258.76z"/>
	<path id="linkes_x5F_ohr" class="st6" d="M745.2,259.5c4.47-3.39,4.54-10.07,4.15-15.72c-0.32-4.6-0.73-9.47-3.44-13.2
		c-2.38-3.28-6.19-5.17-9.84-6.93c-1.15-0.56-2.32-1.12-3.58-1.34c-7.13-1.25-11.5,4.31-10.51,10.77c0.22,1.47,0.73,2.88,0.99,4.34
		c0.6,3.43-0.27,7.09-2.35,9.88c2.22,2.61,5.36,4.35,8.68,5.16c2.96,0.72,6.07,0.74,9.02,1.55c2.94,0.81,5.88,2.7,6.67,5.65
		C745.06,259.61,745.13,259.56,745.2,259.5z"/>
	<path id="rechtes_x5F_Ohr" class="st6" d="M679.39,259.02c-0.11-0.69-0.33-1.36-0.55-2.03c-1.46-4.44-2.92-8.88-4.38-13.32
		c-1.13-3.44-2.47-7.16-5.54-9.08c-2.28-1.43-5.15-1.6-7.82-1.27c-11.54,1.41-14.28,8.91-18.29,18.31
		c-1.5,3.51-2.61,7.45-1.56,11.13c1.43,4.96,6.29,7.98,10.77,10.53c3.21-3.48,6.43-6.97,9.64-10.45c3.11,3.13,7.29,5.18,11.68,5.72
		c2.02-2.94,6.01-4.93,6.13-8.5C679.48,259.71,679.45,259.37,679.39,259.02z"/>
	<path id="Nase" class="st9" d="M728.2,360.1c0.13-0.27-14.87-9.7-15.99-0.91c5.34,2.01,10.45,4.64,15.18,7.84
		c3.06-3.55,6.84-6.48,11.04-8.54c0.47-1.99-0.46-4.22-2.19-5.3C732.75,354.25,729.77,356.82,728.2,360.1z"/>
	<path id="Mund" class="st10" d="M733.29,368.68c-0.02-0.08-0.05-0.16-0.09-0.25c-6.98,2.08-14.5,2.32-21.61,0.7
		c-1.33-0.3-2.69-0.69-3.74-1.56c-0.81-0.67-1.39-1.57-1.95-2.46c-1.87-2.97-3.62-6.25-5.92-8.82c-0.69,6.46,5,12.92,10.53,15.64
		c6.29,3.04,13.91,2.73,20.31-0.09C732.16,371.26,733.67,370,733.29,368.68z"/>
	<path id="Auge_x5F_rechts" class="st6" d="M698.43,310.54c-2.51,0.57-4.28,2.95-5.74,5.14c-4.43,6.63-11.35,12.73-3.88,19.9
		c2.46,2.35,5.59,3.84,8.66,5.29c1.4-0.19,2.2-1.73,2.41-3.13c0.21-1.4,0.09-2.89,0.71-4.16c0.7-1.44,2.19-2.28,3.31-3.42
		c2.64-2.68,3.1-6.83,2.71-10.57c-0.23-2.2-0.72-4.44-1.98-6.26c-1.26-1.82-3.42-3.14-5.62-2.89
		C698.8,310.47,698.61,310.5,698.43,310.54z"/>
	<path id="Auge_x5F_Links" class="st6" d="M736.14,305.84c-3.97-1.91-3.96,13.02-3.51,14.23c1.34,3.64,4.77,6.38,5.42,10.2
		c5.54-0.27,9.35-6.6,8.42-12.07c-0.93-5.47-5.35-9.77-10.26-12.33C736.19,305.86,736.16,305.85,736.14,305.84z"/>
	<path id="Schatten_x5F_rechts_x5F_Ohr" class="st11" d="M726.76,226.53c3.22,2.91,5.7,7.73,7.22,11.86
		c1.71,4.64,2.17,9.94,0.18,14.47c-1.37,0.14-2.73,0.28-4.1,0.42c-1.74-2.71-3.48-5.42-5.22-8.13c-0.47-0.73-0.95-1.49-1.12-2.34
		c-0.22-1.13,0.12-2.28,0.43-3.38C725.33,235.22,725.39,230.53,726.76,226.53z"/>
	<circle id="Auge_x5F_außen_x5F_rechts" class="st8" cx="699.6" cy="319.77" r="3.5"/>
	<circle id="Auge_x5F_außen_x5F_links" class="st8" cx="737.87" cy="316.09" r="4"/>
	<circle id="Pupille" class="st12" cx="701.09" cy="319.96" r="2"/>
	<circle id="Pupille_1_" class="st2" cx="739.86" cy="316.34" r="2"/>
</g>
<g id="Ebene_2">
</g>
</svg>
