<?xml version="1.0" encoding="utf-8"?>
<!-- Generator: Adobe Illustrator 24.1.0, SVG Export Plug-In . SVG Version: 6.00 Build 0)  -->
<svg version="1.1" id="Ebene_1" xmlns="http://www.w3.org/2000/svg" xmlns:xlink="http://www.w3.org/1999/xlink" x="0px" y="0px"
	 viewBox="0 0 363 357" style="enable-background:new 0 0 363 357;" xml:space="preserve">
<style type="text/css">
	.st0{clip-path:url(#SVGID_2_);fill:#4D4D4D;}
	.st1{clip-path:url(#SVGID_2_);fill:#F2F2F2;}
	.st2{clip-path:url(#SVGID_2_);}
	.st3{fill:none;stroke:#000000;stroke-miterlimit:10;}
	.st4{fill:#1A1A1A;}
	.st5{fill:#93C4C6;stroke:#000000;stroke-miterlimit:10;}
	.st6{clip-path:url(#SVGID_2_);fill:#333333;}
	.st7{clip-path:url(#SVGID_2_);fill:#313131;}
	.st8{clip-path:url(#SVGID_2_);fill:#E6E6E6;}
	.st9{clip-path:url(#SVGID_2_);fill:#1A1A1A;stroke:#170C00;stroke-miterlimit:10;}
	.st10{clip-path:url(#SVGID_2_);fill:#DB9CAB;}
	.st11{clip-path:url(#SVGID_2_);fill:#3D3D3D;}
	.st12{clip-path:url(#SVGID_2_);fill:#1A1A1A;}
</style>
<g>
	<defs>
		<ellipse id="SVGID_1_" cx="181.5" cy="178.5" rx="181.5" ry="178.5"/>
	</defs>
	<use xlink:href="#SVGID_1_"  style="overflow:visible;fill:#93C4C6;"/>
	<clipPath id="SVGID_2_">
		<use xlink:href="#SVGID_1_"  style="overflow:visible;"/>
	</clipPath>
	<path id="Arm_x5F_rechts" class="st0" d="M151.57,210.17c0.03,0.01,0.07,0.02,0.1,0.03c7.38,1.94,14.69-2.62,21.33-6.37
		c11.51-6.5,24.1-11.07,37.09-13.49c5.12-0.95,10.71-1.5,15.29,0.98c6.42,3.48,9.68,12.29,16.91,13.35
		c6.57-3.87,10.98-11.19,11.33-18.81c0.35-7.62-3.36-15.31-9.55-19.78c-7.17-5.17-16.54-5.8-25.37-6.25
		c-9.34-0.47-19-0.9-27.75,2.42c-11.18,4.25-20.27,14.4-32.22,15.04c-0.74-1.17-1.23-2.2-2.33-3c-3.97,4.33-5.8,11.37-6.55,17.12
		C149.55,193.76,148.66,209.04,151.57,210.17z"/>
	<path id="Körper" class="st1" d="M103.35,59.85c-8.37,2.54-17.75,3.41-26.2,5.97c-23.64,7.15-41.56,27.93-56.26,44.13
		C3.84,128.73-5.34,152.84-4.43,177.44c0.71,19.34,7.33,38.47,12.92,57.53c7.81,26.6,13.7,53.5,17.63,80.48
		c0.93,6.37,1.76,12.79,3.89,19.02c2.66,7.79,7.3,15.1,12.38,22.1c10.83,14.93,23.88,28.78,38.69,41.09
		c8.1-1.31,16.21-2.63,24.31-3.94c2.43-0.39,4.92-0.81,6.99-1.89c2.84-1.49,4.56-4.08,6.18-6.57c6.97-10.73,13.98-21.54,18.39-33.33
		c3.19-8.55,4.98-17.51,8.03-26.11c4.31-12.15,11.14-23.53,14.13-36.04c3.39-14.21,1.66-29.19,1.63-43.89
		c-0.05-24.1,4.54-47.93,13.53-70.24c-19.25-1.5-38.13-10.61-50.05-24.15s-16.64-31.25-12.52-46.94c1.64-6.25,4.6-12.14,5.96-18.46
		c2.14-9.89,0.19-20.62-5.44-29.95C109.47,57.72,106.48,58.91,103.35,59.85z"/>
	<g class="st2">
		<path id="Schlaufe" class="st3" d="M276.93,195.63c1.19-1.59,2.57-3.08,3.95-4.43c0.94-0.92,1.98-1.82,3.3-2.25
			c1.32-0.43,2.99-0.26,3.9,0.69c1.21,1.87,0.49,4.35-1.15,5.93c-1.63,1.58-3.98,2.43-6.31,3.04c-2.08,0.54-4.21,1.11-6.28,1.57
			C274.93,198.61,275.85,197.08,276.93,195.63z"/>
		<path id="Schlaufe_1_" class="st3" d="M176.6,236.87c-1.26,1.54-2.72,2.98-4.16,4.27c-0.99,0.88-2.07,1.74-3.41,2.12
			c-1.34,0.38-3,0.15-3.87-0.84c-1.12-1.92-0.27-4.36,1.44-5.88s4.1-2.27,6.46-2.79c2.1-0.46,4.27-0.94,6.35-1.33
			C178.74,233.97,177.75,235.46,176.6,236.87z"/>
		<path id="Maske" class="st4" d="M217.81,205.81c-3.78,1.08-7.69,1.79-11.58,2.54c-7.65,1.48-15.45,3.22-21.87,7.15
			c-13.74,8.4-13.09,25.42,1.27,33.62c8.06,4.6,18.99,2.92,27.12-1.44c8.13-4.36,14.31-10.95,21.19-16.74
			c10.24,0.72,20.78,1.42,30.53-1.3s18.65-9.72,19.64-18.7c0.68-6.15-2.58-12.46-8.02-16.42c-5.43-3.96-12.84-5.61-19.79-4.81
			c-13.24,1.53-23.33,10.94-35.73,15.24C219.65,205.25,218.73,205.54,217.81,205.81z"/>
		<path id="Auge_x5F_links" class="st5" d="M238.58,215.26c0.24,0.68,0.92,1.26,2.18,1.68c4.14,1.39,8.89,1.29,12.92-0.28
			c4.03-1.56,7.29-4.57,8.88-8.19c0.14-0.31,0.26-0.67,0.12-0.98c-0.14-0.32-0.51-0.5-0.85-0.65c-4.24-1.84-9.33-2.08-13.72-0.62
			C245.48,207.09,237.47,212.16,238.58,215.26z"/>
		<path id="Auge_x5F_rechts_1_" class="st5" d="M217.9,222.74c0-0.01,0-0.02-0.01-0.02c-4.45-2.25-10.02-2.67-14.79-1.1
			c-2.95,0.97-10.15,4.98-9.91,8.4c0.24,3.41,7.93,4,11.33,3.76c1.66-0.11,3.31-0.43,4.8-1.07c2.03-0.87,3.66-2.3,5.25-3.71
			C216.51,227.28,218.61,225.08,217.9,222.74z"/>
	</g>
	<path id="Arm_x5F_links" class="st6" d="M28.56,133.25c-1.24-0.47-2.5-0.9-3.79-1.22c-24.58-6.16-24.44,40.24-17.34,53.55
		c1.47,2.76,3.31,5.33,4.49,8.23c1.02,2.52,1.52,5.23,2,7.91c5.01,27.57,10.42,55.51,23.08,80.5c3.04,6,6.55,11.88,11.47,16.47
		c4.92,4.59,11.43,7.79,18.15,7.54c6.45-0.23,12.33-3.5,18.11-6.37c26.41-13.14,56.2-19.4,85.67-18.01
		c4.27,0.2,8.59,0.56,12.78-0.32c4.18-0.88,8.3-3.21,10.18-7.04c1.4-2.86,1.42-6.19,1.22-9.37c-0.7-11.53-4.67-24.13-14.8-29.68
		c-11.72-6.42-26-0.89-39.21,1.11c-5.07,0.77-10.49,0.93-15.06-1.39c-9.61-4.86-11.21-17.95-9.63-28.61s4.97-21.89,0.84-31.84
		c-2.62-6.31-7.92-11.05-13.04-15.57c-13.03-11.47-27.88-23.63-45.23-23.05c-6.23,0.21-12.46,2.1-18.61,1.06
		C35.89,136.48,32.29,134.66,28.56,133.25z"/>
	<path id="Oberarm" class="st7" d="M66.69,140.35c-2.02-0.53-4.08-0.87-6.19-0.97c-10.27-0.48-20.86,4.87-30.52,1.33
		c-2.93-1.07-5.57-2.92-8.61-3.61c-14.49-3.27-16.08,25.41-15.18,33.92c1.13,10.72,4.63,21.02,7.18,31.49
		c2.67,11.01,4.31,22.31,8.07,33c3.89,11.06,10.08,21.61,10.8,33.32c19.39-13.45,37.81-28.29,55.08-44.36
		c9.72-9.05,19.15-18.57,26.39-29.7c3.73-5.73,6.89-13.07,3.81-19.17c-1.41-2.79-3.93-4.83-6.39-6.77
		c-8.73-6.9-17.6-13.65-26.89-19.77C78.77,145.45,72.94,141.99,66.69,140.35z"/>
	<path id="Kopf" class="st8" d="M108.95,77.55c-0.06,0.68-0.12,1.37-0.18,2.07c-0.9,10.02-5.45,19.35-7.32,29.24
		c-2.08,11.01-0.67,22.79,4.71,32.63c9.88,18.05,30.64,26.7,49.87,34.05c1.57,0.6,3.18,1.21,4.86,1.21c2.19,0,4.25-1.02,6.42-1.24
		c4.23-0.42,8.15,2.23,12.36,2.85c6.05,0.9,12.08-2.58,15.86-7.39c3.77-4.81,5.69-10.78,7.41-16.65c1.14-3.9,2.88-8.47,6.85-9.34
		c1.31-0.29,2.73-0.11,3.95-0.67c1.42-0.65,2.24-2.12,2.97-3.51c4.26-8.13,8.64-16.74,8.24-25.91c-0.55-12.57-9.85-23.01-12.95-35.2
		c-1.76-6.93-1.74-14.89-6.68-20.06c-1.97-2.06-4.54-3.43-7.06-4.76c-9.49-5.02-19.19-10.11-29.79-11.83
		c-7.07-1.15-14.29-0.75-21.44-0.34c-6.7,0.38-13.48,0.77-19.86,2.86C110.74,50.96,110.18,63.06,108.95,77.55z"/>
	<path id="helle_Kopfhälfte" class="st1" d="M171.93,59.76c1.35,6.73,9.03,14.07,11.83,18.89c12.58,21.6-2.23,51.94,11.26,72.99
		c2.07,3.23,4.88,6.71,3.91,10.43c-0.41,1.56-1.44,2.87-2.53,4.05c-5.62,6.12-13.34,10.28-21.54,11.6
		c6.73,3.69,15.58,2.42,21.59-2.36c6.01-4.77,9.23-12.57,9.27-20.25c0.02-2.45-0.17-5.18,1.44-7.02c1.29-1.48,3.36-1.92,5.19-2.62
		c5.65-2.16,9.73-7.42,11.66-13.16c1.93-5.74,1.97-11.95,1.46-17.99c-1.46-17.27-7.32-34.15-16.85-48.61
		c-4.12-6.24-9.19-12.26-16.07-15.18c-5.76-2.45-18.27-2.61-20.52,5.02C171.64,56.9,171.64,58.31,171.93,59.76z"/>
	<path id="linkes_x5F_ohr" class="st6" d="M206.2,60.5c4.47-3.39,4.54-10.07,4.15-15.72c-0.32-4.6-0.73-9.47-3.44-13.2
		c-2.38-3.28-6.19-5.17-9.84-6.93c-1.15-0.56-2.32-1.12-3.58-1.34c-7.13-1.25-11.5,4.31-10.51,10.77c0.22,1.47,0.73,2.88,0.99,4.34
		c0.6,3.43-0.27,7.09-2.35,9.88c2.22,2.61,5.36,4.35,8.68,5.16c2.96,0.72,6.07,0.74,9.02,1.55c2.94,0.81,5.88,2.7,6.67,5.65
		C206.06,60.61,206.13,60.56,206.2,60.5z"/>
	<path id="rechtes_x5F_Ohr" class="st6" d="M140.39,60.02c-0.11-0.69-0.33-1.36-0.55-2.03c-1.46-4.44-2.92-8.88-4.38-13.32
		c-1.13-3.44-2.47-7.16-5.54-9.08c-2.28-1.43-5.15-1.6-7.82-1.27c-11.54,1.41-14.28,8.91-18.29,18.31
		c-1.5,3.51-2.61,7.45-1.56,11.13c1.43,4.96,6.29,7.98,10.77,10.53c3.21-3.48,6.43-6.97,9.64-10.45c3.11,3.13,7.29,5.18,11.68,5.72
		c2.02-2.94,6.01-4.93,6.13-8.5C140.48,60.71,140.45,60.37,140.39,60.02z"/>
	<path id="Nase" class="st9" d="M189.2,161.1c0.13-0.27-14.87-9.7-15.99-0.91c5.34,2.01,10.45,4.64,15.18,7.84
		c3.06-3.55,6.84-6.48,11.04-8.54c0.47-1.99-0.46-4.22-2.19-5.3C193.75,155.25,190.77,157.82,189.2,161.1z"/>
	<path id="Mund" class="st10" d="M194.29,169.68c-0.02-0.08-0.05-0.16-0.09-0.25c-6.98,2.08-14.5,2.32-21.61,0.7
		c-1.33-0.3-2.69-0.69-3.74-1.56c-0.81-0.67-1.39-1.57-1.95-2.46c-1.87-2.97-3.62-6.25-5.92-8.82c-0.69,6.46,5,12.92,10.53,15.64
		c6.29,3.04,13.91,2.73,20.31-0.09C193.16,172.26,194.67,171,194.29,169.68z"/>
	<path id="Auge_x5F_rechts" class="st6" d="M159.43,111.54c-2.51,0.57-4.28,2.95-5.74,5.14c-4.43,6.63-11.35,12.73-3.88,19.9
		c2.46,2.35,5.59,3.84,8.66,5.29c1.4-0.19,2.2-1.73,2.41-3.13s0.09-2.89,0.71-4.16c0.7-1.44,2.19-2.28,3.31-3.42
		c2.64-2.68,3.1-6.83,2.71-10.57c-0.23-2.2-0.72-4.44-1.98-6.26c-1.26-1.82-3.42-3.14-5.62-2.89
		C159.8,111.47,159.61,111.5,159.43,111.54z"/>
	<path id="Auge_x5F_Links" class="st6" d="M197.14,106.84c-3.97-1.91-3.96,13.02-3.51,14.23c1.34,3.64,4.77,6.38,5.42,10.2
		c5.54-0.27,9.35-6.6,8.42-12.07s-5.35-9.77-10.26-12.33C197.19,106.86,197.16,106.85,197.14,106.84z"/>
	<path id="Schatten_x5F_rechts_x5F_Ohr" class="st11" d="M187.76,27.53c3.22,2.91,5.7,7.73,7.22,11.86
		c1.71,4.64,2.17,9.94,0.18,14.47c-1.37,0.14-2.73,0.28-4.1,0.42c-1.74-2.71-3.48-5.42-5.22-8.13c-0.47-0.73-0.95-1.49-1.12-2.34
		c-0.22-1.13,0.12-2.28,0.43-3.38C186.33,36.22,186.39,31.53,187.76,27.53z"/>
	<circle id="Auge_x5F_außen_x5F_rechts" class="st8" cx="160.5" cy="120.5" r="3.5"/>
	<circle id="Auge_x5F_außen_x5F_links" class="st8" cx="199" cy="117" r="4"/>
	<circle id="Pupille" class="st12" cx="162" cy="121" r="2"/>
	<circle id="Pupille_1_" class="st2" cx="201" cy="117" r="2"/>
</g>
</svg>
