<svg xmlns="http://www.w3.org/2000/svg" xmlns:xlink="http://www.w3.org/1999/xlink" viewBox="0 0 367.49 397.65"><defs><style>.cls-1,.cls-7{fill:#93c4c6;}.cls-2{clip-path:url(#clip-path);}.cls-3{fill:#4d4d4d;}.cls-4{fill:#f2f2f2;}.cls-5{fill:none;}.cls-5,.cls-7{stroke:#000;}.cls-11,.cls-5,.cls-7{stroke-miterlimit:10;}.cls-11,.cls-6{fill:#1a1a1a;}.cls-8{fill:#333;}.cls-9{fill:#313131;}.cls-10{fill:#e6e6e6;}.cls-11{stroke:#170c00;}.cls-12{fill:#db9cab;}.cls-13{fill:#3d3d3d;}</style><clipPath id="clip-path" transform="translate(4.49)"><ellipse class="cls-1" cx="181.5" cy="178.5" rx="181.5" ry="178.5"/></clipPath></defs><g id="Ebene_2" data-name="Ebene 2"><g id="Ebene_1-2" data-name="Ebene 1"><ellipse class="cls-1" cx="185.99" cy="178.5" rx="181.5" ry="178.5"/><g class="cls-2"><path id="Arm_rechts" class="cls-3" d="M151.57,210.17l.1,0c7.38,1.94,14.69-2.62,21.34-6.37a120,120,0,0,1,37.08-13.49c5.13-.95,10.71-1.5,15.29,1,6.42,3.48,9.68,12.29,16.91,13.35a23.07,23.07,0,0,0,1.78-38.59c-7.16-5.17-16.54-5.8-25.37-6.24-9.34-.48-19-.9-27.75,2.42-11.18,4.25-20.27,14.4-32.21,15a9.53,9.53,0,0,0-2.34-3c-4,4.33-5.8,11.37-6.55,17.13C149.55,193.76,148.66,209,151.57,210.17Z" transform="translate(4.49)"/><path id="Körper" class="cls-4" d="M103.35,59.85c-8.37,2.54-17.75,3.41-26.21,6C53.5,73,35.58,93.75,20.88,110c-17,18.78-26.22,42.89-25.31,67.49C-3.72,196.78,2.9,215.91,8.49,235a585,585,0,0,1,17.63,80.47c.93,6.38,1.76,12.79,3.89,19,2.67,7.79,7.3,15.1,12.38,22.1a226.71,226.71,0,0,0,38.69,41.09l24.31-3.95a22.84,22.84,0,0,0,7-1.89c2.84-1.49,4.56-4.08,6.18-6.57,7-10.73,14-21.53,18.39-33.32,3.19-8.55,5-17.52,8-26.11,4.32-12.15,11.15-23.53,14.13-36,3.39-14.21,1.66-29.19,1.63-43.89a186.77,186.77,0,0,1,13.53-70.24c-19.25-1.5-38.13-10.61-50-24.16s-16.64-31.25-12.52-46.94c1.65-6.25,4.6-12.14,6-18.45a41.35,41.35,0,0,0-5.44-30A41.45,41.45,0,0,1,103.35,59.85Z" transform="translate(4.49)"/><path id="Schlaufe" class="cls-5" d="M276.93,195.63a38,38,0,0,1,3.94-4.42,8.69,8.69,0,0,1,3.31-2.26,3.92,3.92,0,0,1,3.9.7c1.21,1.87.49,4.35-1.15,5.93a14.19,14.19,0,0,1-6.31,3c-2.08.54-4.22,1.11-6.28,1.57A18.91,18.91,0,0,1,276.93,195.63Z" transform="translate(4.49)"/><path id="Schlaufe-2" data-name="Schlaufe" class="cls-5" d="M176.6,236.87a39.1,39.1,0,0,1-4.16,4.27,8.93,8.93,0,0,1-3.41,2.12,3.9,3.9,0,0,1-3.87-.84c-1.12-1.92-.27-4.36,1.44-5.87a14.27,14.27,0,0,1,6.46-2.8c2.1-.46,4.26-.94,6.35-1.32A19.45,19.45,0,0,1,176.6,236.87Z" transform="translate(4.49)"/><path id="Maske" class="cls-6" d="M217.81,205.81c-3.78,1.07-7.7,1.78-11.58,2.54-7.65,1.48-15.45,3.22-21.87,7.15-13.74,8.39-13.09,25.42,1.26,33.61,8.06,4.61,19,2.92,27.13-1.44s14.31-10.95,21.18-16.74c10.24.73,20.78,1.42,30.53-1.3s18.66-9.72,19.64-18.7c.68-6.15-2.58-12.46-8-16.42s-12.84-5.61-19.8-4.81c-13.24,1.53-23.33,10.94-35.73,15.24C219.65,205.25,218.73,205.54,217.81,205.81Z" transform="translate(4.49)"/><path id="Auge_links" class="cls-7" d="M238.58,215.26a3.14,3.14,0,0,0,2.18,1.68,19.35,19.35,0,0,0,12.92-.28,15.94,15.94,0,0,0,8.88-8.19,1.26,1.26,0,0,0,.12-1,1.58,1.58,0,0,0-.85-.65,19.71,19.71,0,0,0-13.72-.62C245.48,207.09,237.47,212.16,238.58,215.26Z" transform="translate(4.49)"/><path id="Auge_rechts" class="cls-7" d="M217.9,222.74v0a19.89,19.89,0,0,0-14.79-1.1c-2.95,1-10.15,5-9.91,8.4s7.93,4,11.33,3.76a14.91,14.91,0,0,0,4.8-1.07,20.43,20.43,0,0,0,5.25-3.71C216.51,227.28,218.61,225.08,217.9,222.74Z" transform="translate(4.49)"/><path id="Arm_links" class="cls-8" d="M28.56,133.25A33.45,33.45,0,0,0,24.77,132C.19,125.87.33,172.27,7.43,185.58c1.47,2.76,3.31,5.33,4.49,8.22a40.4,40.4,0,0,1,2,7.91c5,27.57,10.42,55.51,23.08,80.5,3,6,6.55,11.88,11.47,16.47s11.43,7.78,18.15,7.54c6.45-.23,12.33-3.5,18.11-6.37a174.81,174.81,0,0,1,85.66-18c4.27.2,8.6.55,12.78-.32s8.29-3.21,10.18-7c1.4-2.86,1.41-6.18,1.22-9.36-.7-11.53-4.67-24.13-14.8-29.69-11.72-6.42-26-.88-39.21,1.11-5.07.77-10.49.93-15.07-1.39-9.61-4.86-11.2-17.95-9.63-28.61s5-21.89.84-31.83c-2.62-6.31-7.92-11.06-13-15.57-13-11.47-27.88-23.63-45.23-23-6.23.21-12.46,2.1-18.6,1.06C35.89,136.48,32.29,134.66,28.56,133.25Z" transform="translate(4.49)"/><path id="Oberarm" class="cls-9" d="M66.69,140.35a29.92,29.92,0,0,0-6.19-1c-10.27-.48-20.87,4.87-30.52,1.34-2.93-1.07-5.57-2.92-8.61-3.61C6.87,133.83,5.29,162.51,6.19,171c1.13,10.72,4.63,21,7.17,31.49,2.68,11,4.31,22.31,8.07,33,3.89,11.06,10.09,21.61,10.8,33.32a495.29,495.29,0,0,0,55.09-44.37c9.72-9,19.14-18.57,26.38-29.7,3.73-5.73,6.89-13.07,3.81-19.17-1.41-2.79-3.93-4.83-6.39-6.77-8.73-6.9-17.59-13.65-26.89-19.77C78.77,145.45,72.94,142,66.69,140.35Z" transform="translate(4.49)"/><path id="Kopf" class="cls-10" d="M109,77.55q-.09,1-.18,2.07c-.9,10-5.45,19.35-7.32,29.24-2.08,11-.67,22.79,4.71,32.62,9.88,18.05,30.65,26.71,49.87,34.06a13.94,13.94,0,0,0,4.85,1.2c2.19,0,4.25-1,6.42-1.23,4.24-.42,8.15,2.22,12.36,2.85,6.05.89,12.08-2.59,15.86-7.39s5.69-10.78,7.41-16.65c1.14-3.9,2.87-8.47,6.84-9.34,1.31-.29,2.73-.11,3.95-.67,1.43-.65,2.25-2.12,3-3.51,4.26-8.12,8.64-16.74,8.24-25.91-.55-12.56-9.85-23-13-35.19-1.76-6.93-1.74-14.89-6.68-20.06a26.68,26.68,0,0,0-7.06-4.77c-9.49-5-19.19-10.1-29.79-11.82-7.07-1.15-14.29-.75-21.44-.34-6.7.37-13.49.77-19.86,2.86C110.74,51,110.18,63.06,109,77.55Z" transform="translate(4.49)"/><path id="helle_Kopfhälfte" data-name="helle Kopfhälfte" class="cls-4" d="M171.93,59.76c1.36,6.73,9,14.06,11.84,18.88,12.58,21.6-2.23,51.94,11.26,73,2.07,3.22,4.88,6.71,3.91,10.42a9.81,9.81,0,0,1-2.53,4,37.59,37.59,0,0,1-21.54,11.61c6.73,3.68,15.58,2.41,21.59-2.36s9.22-12.57,9.27-20.25c0-2.45-.17-5.18,1.44-7,1.29-1.48,3.36-1.92,5.19-2.62C218,143.3,222.09,138,224,132.3s2-12,1.45-18A104.74,104.74,0,0,0,208.63,65.7c-4.11-6.25-9.18-12.26-16.06-15.18-5.76-2.45-18.28-2.61-20.53,5A8.71,8.71,0,0,0,171.93,59.76Z" transform="translate(4.49)"/><path id="linkes_ohr" class="cls-8" d="M206.2,60.5c4.47-3.39,4.54-10.07,4.15-15.71-.32-4.6-.73-9.47-3.44-13.2-2.39-3.28-6.19-5.17-9.84-6.94a14.46,14.46,0,0,0-3.58-1.34C186.36,22.06,182,27.62,183,34.08c.22,1.47.73,2.88,1,4.34a12.91,12.91,0,0,1-2.35,9.88,16.51,16.51,0,0,0,8.68,5.16c3,.72,6.08.74,9,1.55s5.88,2.71,6.67,5.65Z" transform="translate(4.49)"/><path id="rechtes_Ohr" class="cls-8" d="M140.39,60a13.14,13.14,0,0,0-.55-2l-4.38-13.32c-1.13-3.44-2.47-7.16-5.54-9.08a12,12,0,0,0-7.82-1.28c-11.54,1.41-14.28,8.91-18.3,18.32-1.5,3.51-2.61,7.45-1.55,11.12,1.42,5,6.29,8,10.77,10.53l9.64-10.45a20,20,0,0,0,11.68,5.72c2-2.94,6-4.92,6.13-8.5A5.21,5.21,0,0,0,140.39,60Z" transform="translate(4.49)"/><path id="Nase" class="cls-11" d="M189.2,161.1c.12-.27-14.87-9.71-16-.91A72.73,72.73,0,0,1,188.38,168a35.11,35.11,0,0,1,11-8.54,5,5,0,0,0-2.19-5.3A13.37,13.37,0,0,0,189.2,161.1Z" transform="translate(4.49)"/><path id="Mund" class="cls-12" d="M194.29,169.68a1.25,1.25,0,0,0-.09-.25,42.79,42.79,0,0,1-21.61.7,8.86,8.86,0,0,1-3.74-1.55,10,10,0,0,1-1.95-2.47c-1.87-3-3.61-6.25-5.91-8.81-.7,6.46,5,12.92,10.53,15.64,6.28,3,13.91,2.73,20.3-.09C193.16,172.26,194.67,171,194.29,169.68Z" transform="translate(4.49)"/><path id="Auge_rechts-2" data-name="Auge_rechts" class="cls-8" d="M159.43,111.54c-2.51.57-4.28,2.95-5.74,5.14-4.44,6.63-11.36,12.73-3.89,19.9,2.46,2.34,5.59,3.84,8.66,5.29,1.4-.19,2.2-1.73,2.41-3.13s.09-2.88.7-4.15c.7-1.44,2.19-2.29,3.31-3.42,2.64-2.68,3.1-6.83,2.71-10.57a13.31,13.31,0,0,0-2-6.26,6.32,6.32,0,0,0-5.62-2.9Z" transform="translate(4.49)"/><path id="Auge_Links-2" data-name="Auge_Links" class="cls-8" d="M197.14,106.84c-4-1.91-4,13-3.51,14.23,1.34,3.63,4.77,6.38,5.42,10.2,5.54-.27,9.35-6.6,8.42-12.07s-5.35-9.77-10.26-12.33Z" transform="translate(4.49)"/><path id="Schatten_rechts_Ohr" class="cls-13" d="M187.76,27.53c3.21,2.91,5.69,7.72,7.22,11.86,1.71,4.64,2.17,9.94.18,14.47l-4.09.42-5.22-8.14a6.74,6.74,0,0,1-1.12-2.34,7.31,7.31,0,0,1,.43-3.38C186.33,36.22,186.39,31.53,187.76,27.53Z" transform="translate(4.49)"/><circle id="Auge_außen_rechts" class="cls-10" cx="164.99" cy="120.5" r="3.5"/><circle id="Auge_außen_links" class="cls-10" cx="203.49" cy="117" r="4"/><circle id="Pupille" class="cls-6" cx="166.49" cy="121" r="2"/><circle id="Pupille-2" data-name="Pupille" cx="205.49" cy="117" r="2"/></g></g></g></svg>